#!OML:ASF F:\VICON\USERDATA\Patient Classification 1\PLAYGROUND\JustinFriday\JustinFriday.ASF
:FULLY-SPECIFIED
:DEGREES
2433
root 14.3803 31.7478 51.0839 -751.305 -192.218 -0.0833124
lowerback 42.3159 1.88357 -9.50517
upperback 22.8191 9.64411 -0.548411
thorax 5.2425 8.2758 1.68254
lowerneck 0.0977373 -2.39596 -6.64777
upperneck -10.2152 -2.33644 8.17811
head -2.84304 -1.02915 3.61637
rclavicle -4.19436e-014 4.05521e-014
rhumerus 82.5058 4.13667 -77.2717
rradius 66.9358
rwrist 384.516
rhand -13.5762 -25.0265
rfingers 7.12502
rthumb 12.5378 -54.6303
lclavicle -4.19436e-014 4.05521e-014
lhumerus 84.9455 8.13055 63.9131
lradius 54.5952
lwrist -13.5936
lhand 4.79024 3.82262
lfingers 7.12502
lthumb 30.1699 31.379
rfemur -27.1342 4.73915 33.2569
rtibia 56.0626
rfoot -28.6954 -11.2488
rtoes 13.5521
lfemur -31.3418 23.574 -6.74749
ltibia 88.4683
lfoot -20.9952 2.02026
ltoes -15.6635
2434
root 14.3821 31.8283 51.126 -751.659 -192.455 0.0960128
lowerback 42.883 1.84481 -9.34776
upperback 22.9359 9.77584 -0.532849
thorax 5.24241 8.42631 1.54727
lowerneck 0.396124 -2.38988 -6.56925
upperneck -10.6921 -2.31093 8.06525
head -3.03916 -1.01308 3.57889
rclavicle -1.88845e-015 2.5842e-015
rhumerus 82.5692 4.08413 -77.1068
rradius 67.0803
rwrist 384.49
rhand -13.6947 -24.9806
rfingers 7.12502
rthumb 12.4235 -54.5914
lclavicle -1.88845e-015 2.5842e-015
lhumerus 84.9518 8.22611 63.9751
lradius 54.8485
lwrist -13.5685
lhand 4.72154 3.96802
lfingers 7.12502
lthumb 30.1043 31.5364
rfemur -26.0773 3.76579 33.5429
rtibia 54.8026
rfoot -28.1213 -10.404
rtoes 13.1797
lfemur -32.8413 23.8839 -6.34534
ltibia 91.0316
lfoot -22.2913 2.06242
ltoes -13.5837
2435
root 14.3794 31.8757 51.1534 -752.133 -192.53 0.0110168
lowerback 43.6905 1.89211 -9.50264
upperback 22.9123 9.89964 -0.573857
thorax 5.21228 8.56612 1.4815
lowerneck 0.692694 -2.47039 -6.49672
upperneck -11.2335 -2.39363 7.98127
head -3.2459 -1.04875 3.55463
rclavicle -2.70347e-014 5.50634e-014
rhumerus 82.6384 3.95538 -76.8638
rradius 67.1678
rwrist 384.423
rhand -13.7737 -24.8775
rfingers 7.12502
rthumb 12.3473 -54.4929
lclavicle -2.70347e-014 5.50634e-014
lhumerus 84.9411 8.31026 64.0391
lradius 55.1573
lwrist -13.682
lhand 4.60135 4.05957
lfingers 7.12502
lthumb 29.9897 31.6487
rfemur -25.0261 3.0681 33.4718
rtibia 53.61
rfoot -27.7203 -9.65952
rtoes 13.0616
lfemur -34.0863 24.449 -6.37617
ltibia 93.3978
lfoot -23.5843 3.28971
ltoes -15.2658
2436
root 14.3786 31.9555 51.196 -752.666 -192.522 -0.19858
lowerback 44.3774 1.94329 -9.76642
upperback 23.0168 10.0194 -0.641287
thorax 5.18292 8.69446 1.4591
lowerneck 0.914596 -2.41519 -6.33835
upperneck -11.5794 -2.31081 7.80641
head -3.3976 -1.00483 3.48079
rclavicle -1.799e-014 1.37161e-014
rhumerus 82.6672 3.84872 -76.6498
rradius 67.3233
rwrist 384.375
rhand -13.7239 -24.7791
rfingers 7.12502
rthumb 12.3953 -54.3916
lclavicle -1.799e-014 1.37161e-014
lhumerus 84.9347 8.35678 64.2533
lradius 55.4401
lwrist -13.9223
lhand 4.74615 3.69836
lfingers 7.12502
lthumb 30.1278 31.2624
rfemur -23.7463 3.14176 33.2316
rtibia 52.2931
rfoot -27.2083 -9.58351
rtoes 13.0766
lfemur -35.3556 24.8616 -6.59717
ltibia 95.3969
lfoot -24.5638 3.77446
ltoes -15.4186
2437
root 14.3779 32.0171 51.2289 -753.142 -192.59 -0.278402
lowerback 45.0426 1.97353 -9.92436
upperback 23.119 10.1425 -0.689608
thorax 5.16031 8.82906 1.40512
lowerneck 1.02944 -2.47799 -6.30784
upperneck -11.9147 -2.35528 7.90861
head -3.51192 -1.02509 3.51473
rclavicle 7.00716e-014 -6.7885e-014
rhumerus 82.7667 3.79957 -76.5815
rradius 67.4844
rwrist 384.334
rhand -13.7589 -24.8917
rfingers 7.12502
rthumb 12.3616 -54.5062
lclavicle 7.00716e-014 -6.7885e-014
lhumerus 84.9812 8.39832 64.4623
lradius 55.6948
lwrist -14.0808
lhand 5.01278 3.3622
lfingers 7.12502
lthumb 30.3822 30.8796
rfemur -22.6083 2.81522 33.1608
rtibia 51.0951
rfoot -26.4984 -9.53417
rtoes 11.6792
lfemur -36.8155 25.2404 -6.66542
ltibia 97.3639
lfoot -25.4791 3.98395
ltoes -15.6857
2438
root 14.3774 32.07 51.2588 -753.512 -192.804 -0.127084
lowerback 46.5708 2.11147 -9.96223
upperback 22.4325 10.2478 -0.661081
thorax 5.02682 8.98393 1.23854
lowerneck 1.08675 -2.40425 -6.27485
upperneck -12.1154 -2.24321 7.82515
head -3.59167 -0.962712 3.4843
rclavicle -6.02318e-014 3.77691e-014
rhumerus 82.9127 3.72627 -76.5925
rradius 67.5833
rwrist 384.379
rhand -13.8929 -24.9716
rfingers 7.12502
rthumb 12.2324 -54.5939
lclavicle -6.02318e-014 3.77691e-014
lhumerus 85.114 8.45745 64.4529
lradius 55.8371
lwrist -13.9983
lhand 4.99847 3.32069
lfingers 7.12502
lthumb 30.3685 30.8406
rfemur -21.5335 2.3968 33.3833
rtibia 49.8594
rfoot -25.9492 -9.35156
rtoes 10.4734
lfemur -38.391 25.6218 -6.4224
ltibia 99.1909
lfoot -26.4608 3.77426
ltoes -15.8163
